<svg xmlns="http://www.w3.org/2000/svg" width="468" height="60" viewBox="0 0 468 60"><path d="M0 0h468v60H0z" fill="#555"/><path d="M355.918 23.707c-1.814 0-3.326.605-4.535 1.814-1.248 1.21-1.89 2.647-1.89 4.537 0 1.738.642 3.212 1.89 4.422 1.21 1.133 2.72 1.775 4.535 1.775 1.776 0 3.288-.605 4.536-1.776 1.21-1.21 1.814-2.647 1.814-4.46 0-1.89-.605-3.327-1.89-4.537-1.134-1.133-2.646-1.776-4.46-1.776zm28.95 0c-1.246 0-2.266.302-3.098.945-.756.605-1.21 1.512-1.21 2.646 0 1.133.38 2.003.983 2.532.643.53 1.7.983 3.1 1.323.87.227 1.51.378 1.776.642.3.227.452.492.452.87s-.15.642-.378.87c-.377.226-.755.3-1.21.3-1.133 0-2.342-.528-3.627-1.662l-1.626 1.966c1.513 1.435 3.29 2.153 5.18 2.153 1.398 0 2.456-.378 3.25-1.02.83-.68 1.247-1.512 1.247-2.646s-.378-1.89-.983-2.495c-.642-.567-1.51-.982-2.645-1.247-1.21-.378-1.89-.567-2.27-.756-.3-.228-.453-.53-.453-.87 0-.378.114-.643.378-.832.265-.226.643-.378 1.06-.378 1.133 0 2.266.378 3.287 1.21l1.36-1.966c-.604-.49-1.322-.907-2.116-1.133-.832-.302-1.625-.453-2.42-.453zm-85.038.265v12.094h2.646V31.38h5.367v-2.382h-5.292v-2.645h5.557v-2.38zm10.583 0v12.094h2.645v-3.78h1.89l2.72 3.78h3.327l-3.1-4.31c1.588-.565 2.344-1.813 2.344-3.778 0-1.398-.38-2.42-1.21-3.024-.756-.642-2.117-.982-4.006-.982zm12.585 0v12.094h8.92v-2.268h-6.236v-2.645h5.442v-2.268h-5.404V26.39h6.047v-2.418zm11.34 0v12.094h8.92v-2.268h-6.238v-2.645h5.443v-2.268h-5.405V26.39h6.048v-2.418zm30.235 0v12.094h2.646V32.74h1.662c1.776 0 3.1-.378 3.968-1.058.87-.68 1.323-1.776 1.323-3.288 0-1.512-.378-2.646-1.285-3.326-.83-.756-2.192-1.134-4.044-1.134zm27.364 0v12.094h8.92v-2.268h-6.2v-2.645h5.406v-2.268h-5.405V26.39h6.048v-2.418zm11.34 0v12.094h2.72v-3.78h1.89l2.645 3.78h3.326l-3.023-4.31c1.51-.565 2.267-1.813 2.267-3.778 0-1.398-.378-2.42-1.21-3.024-.755-.642-2.116-.982-4.005-.982zm10.808 0l4.913 12.094h2.268l4.914-12.094h-3.024l-3.024 7.71-3.1-7.71zm13.493 0v12.094h8.92v-2.268h-6.274v-2.645h5.442v-2.268h-5.442V26.39h6.047v-2.418zm11.34 0v12.094h2.644v-3.78h1.89l2.72 3.78h3.327l-3.024-4.31c1.51-.565 2.267-1.813 2.267-3.778 0-1.398-.378-2.42-1.247-3.024-.756-.642-2.116-.982-4.006-.982zm-83 2.078c1.02 0 1.89.378 2.532 1.134.756.756 1.06 1.7 1.06 2.797 0 1.06-.38 1.966-1.06 2.722s-1.51 1.134-2.532 1.134c-1.02 0-1.89-.378-2.57-1.134-.756-.756-1.058-1.663-1.058-2.76 0-1.133.378-2.04 1.02-2.796.68-.755 1.512-1.133 2.533-1.133zm-42.822.265h2.04c.833 0 1.513.113 1.815.378.38.227.493.68.493 1.323 0 .642-.19 1.134-.53 1.436-.378.302-.944.454-1.89.454h-1.965zm54.16 0h1.513c.906 0 1.586.15 2.002.454.378.263.642.754.642 1.51 0 .68-.19 1.21-.49 1.512-.38.378-.946.605-1.89.605h-1.777zm38.74 0h2.042c.83 0 1.436.113 1.814.378.378.227.49.68.49 1.323 0 .642-.15 1.134-.49 1.436-.378.302-.983.454-1.89.454h-1.965zm35.604 0h2.04c.87 0 1.513.113 1.815.378.378.227.53.68.53 1.323 0 .642-.19 1.134-.53 1.436-.378.302-.945.454-1.89.454H441.6z" fill="#fff"/><path d="M252.433 31.808l3.968-12.864h5.217l3.936 12.864L270 18.944h5.41l-7.81 22.368h-3.71l-4.897-15.552-4.864 15.552h-3.713l-7.808-22.368h5.407zm-20.76-12.864q5.153 0 7.49 2.016 2.367 1.984 2.367 6.144 0 4.128-2.432 6.048-2.4 1.92-7.36 1.92h-2.976v6.24h-4.992V18.944zm.45 11.808q2.495 0 3.39-.992.897-1.024.897-2.944 0-1.952-1.184-2.752-1.152-.832-3.616-.832h-2.848v7.52zm-17.7 10.016q-.8-.832-.8-2.016 0-1.184.8-1.984.83-.832 2.015-.832 1.184 0 1.984.832.832.8.832 1.984t-.832 2.016q-.8.8-1.984.8t-2.016-.8zm-10.31-13.536l-6.047 12.224h-2.976l-6.016-12.224v14.08h-4.992V18.944h6.752l5.76 12.288 5.792-12.288h6.72v22.368h-4.992zm-29.348 2.784q0-3.008-1.92-5.12t-4.736-2.112q-2.785 0-4.705 2.112t-1.92 5.12q0 2.976 1.92 5.088 1.92 2.08 4.704 2.08 2.815 0 4.735-2.08 1.92-2.112 1.92-5.088zm1.696 8.224q-3.39 3.296-8.35 3.296-4.96 0-8.353-3.296-3.392-3.328-3.392-8.256 0-4.928 3.392-8.224 3.392-3.328 8.352-3.328 4.96 0 8.35 3.328 3.393 3.296 3.393 8.224 0 4.928-3.392 8.256zm-28.133-8.224q0-3.008-1.92-5.12t-4.736-2.112q-2.783 0-4.703 2.112-1.92 2.112-1.92 5.12 0 2.976 1.92 5.088 1.92 2.08 4.704 2.08 2.817 0 4.737-2.08 1.92-2.112 1.92-5.088zm1.696 8.224q-3.392 3.296-8.352 3.296-4.96 0-8.35-3.296-3.393-3.328-3.393-8.256 0-4.928 3.392-8.224 3.39-3.328 8.35-3.328 4.96 0 8.353 3.328 3.392 3.296 3.392 8.224 0 4.928-3.392 8.256zm-31.086 3.072h-9.792V18.944h8.704q2.27 0 3.903.544 1.664.544 2.496 1.472 1.503 1.728 1.503 3.904 0 2.624-1.696 3.904-.576.448-.8.576-.224.096-.8.352 2.08.448 3.296 1.888Q127 32.992 127 35.104q0 2.336-1.6 4.128-1.855 2.08-6.463 2.08zM114.137 28h2.368q2.08 0 3.072-.448 1.024-.448 1.024-1.92 0-1.504-.927-1.984-.928-.48-3.136-.48h-2.4zm0 9.088h3.424q2.145 0 3.2-.512 1.09-.544 1.09-2.08 0-1.568-1.153-2.048-1.12-.512-3.616-.512h-2.943zm-12.87 4.224l-2.08-4.832h-9.375l-2.08 4.832H82.42l9.664-22.368h4.832l9.664 22.368zM94.518 25.6L91.7 32.096h5.6zM62.58 18.944h4.992v9.184l8.448-9.184h6.176l-8.896 9.888q1.152 1.6 4.256 5.984 3.104 4.352 4.64 6.496h-5.824l-6.56-8.832-2.24 2.496v6.336h-4.992z" fill="#fff"/><path d="M44.68 17.42l.874.874-4.63 4.61 1.29 1.292c.474.473.474 1.25 0 1.724l-1.213 1.214c1.06 1.92 1.688 4.14 1.688 6.51C42.688 41.023 36.712 47 29.33 47c-7.38 0-13.356-5.977-13.356-13.357 0-7.38 5.977-13.357 13.357-13.357 2.373 0 4.59.626 6.51 1.688l1.214-1.215c.474-.474 1.25-.474 1.724 0l1.29 1.29zm.153-1.06c-.114.113-.267.188-.418.188-.17 0-.323-.076-.437-.19l-1.724-1.707c-.23-.245-.23-.625 0-.873.245-.226.625-.226.872 0l1.707 1.728c.246.227.246.627 0 .854zm4.364 4.363c-.134.113-.285.17-.437.17-.152 0-.304-.057-.437-.17l-1.706-1.728c-.247-.227-.247-.627 0-.854.227-.245.626-.245.853 0l1.727 1.71c.227.245.227.625 0 .873zm.777-3.473c0 .34-.267.607-.607.607h-1.82c-.34 0-.61-.267-.61-.607 0-.34.27-.607.61-.607h1.82c.34 0 .607.267.607.607zm-3.643-3.643v1.822c0 .34-.266.606-.606.606-.34 0-.607-.267-.607-.607v-1.823c0-.34.267-.607.607-.607.34 0 .607.267.607.607zm2.867 1.044L47.47 16.36c-.115.114-.268.19-.42.19-.17 0-.322-.076-.436-.19-.245-.226-.245-.626 0-.853l1.71-1.728c.245-.227.625-.227.873 0 .226.247.226.627 0 .874z" fill="#fff"/></svg>
